<svg width="113" height="34" viewBox="0 0 113 34" fill="none" xmlns="http://www.w3.org/2000/svg">
<path d="M5.99 3.94V25H0.86V3.94H5.99ZM17.5977 3.94C19.8177 3.94 21.7577 4.38 23.4177 5.26C25.0777 6.14 26.3577 7.38 27.2577 8.98C28.1777 10.56 28.6377 12.39 28.6377 14.47C28.6377 16.53 28.1777 18.36 27.2577 19.96C26.3577 21.56 25.0677 22.8 23.3877 23.68C21.7277 24.56 19.7977 25 17.5977 25H9.70766V3.94H17.5977ZM17.2677 20.56C19.2077 20.56 20.7177 20.03 21.7977 18.97C22.8777 17.91 23.4177 16.41 23.4177 14.47C23.4177 12.53 22.8777 11.02 21.7977 9.94C20.7177 8.86 19.2077 8.32 17.2677 8.32H14.8377V20.56H17.2677ZM47.2845 16.36C47.2845 16.84 47.2545 17.34 47.1945 17.86H35.5845C35.6645 18.9 35.9945 19.7 36.5745 20.26C37.1745 20.8 37.9045 21.07 38.7645 21.07C40.0445 21.07 40.9345 20.53 41.4345 19.45H46.8945C46.6145 20.55 46.1045 21.54 45.3645 22.42C44.6445 23.3 43.7345 23.99 42.6345 24.49C41.5345 24.99 40.3045 25.24 38.9445 25.24C37.3045 25.24 35.8445 24.89 34.5645 24.19C33.2845 23.49 32.2845 22.49 31.5645 21.19C30.8445 19.89 30.4845 18.37 30.4845 16.63C30.4845 14.89 30.8345 13.37 31.5345 12.07C32.2545 10.77 33.2545 9.77 34.5345 9.07C35.8145 8.37 37.2845 8.02 38.9445 8.02C40.5645 8.02 42.0045 8.36 43.2645 9.04C44.5245 9.72 45.5045 10.69 46.2045 11.95C46.9245 13.21 47.2845 14.68 47.2845 16.36ZM42.0345 15.01C42.0345 14.13 41.7345 13.43 41.1345 12.91C40.5345 12.39 39.7845 12.13 38.8845 12.13C38.0245 12.13 37.2945 12.38 36.6945 12.88C36.1145 13.38 35.7545 14.09 35.6145 15.01H42.0345ZM56.8009 25.24C55.3409 25.24 54.0409 24.99 52.9009 24.49C51.7609 23.99 50.8609 23.31 50.2009 22.45C49.5409 21.57 49.1709 20.59 49.0909 19.51H54.1609C54.2209 20.09 54.4909 20.56 54.9709 20.92C55.4509 21.28 56.0409 21.46 56.7409 21.46C57.3809 21.46 57.8709 21.34 58.2109 21.1C58.5709 20.84 58.7509 20.51 58.7509 20.11C58.7509 19.63 58.5009 19.28 58.0009 19.06C57.5009 18.82 56.6909 18.56 55.5709 18.28C54.3709 18 53.3709 17.71 52.5709 17.41C51.7709 17.09 51.0809 16.6 50.5009 15.94C49.9209 15.26 49.6309 14.35 49.6309 13.21C49.6309 12.25 49.8909 11.38 50.4109 10.6C50.9509 9.8 51.7309 9.17 52.7509 8.71C53.7909 8.25 55.0209 8.02 56.4409 8.02C58.5409 8.02 60.1909 8.54 61.3909 9.58C62.6109 10.62 63.3109 12 63.4909 13.72H58.7509C58.6709 13.14 58.4109 12.68 57.9709 12.34C57.5509 12 56.9909 11.83 56.2909 11.83C55.6909 11.83 55.2309 11.95 54.9109 12.19C54.5909 12.41 54.4309 12.72 54.4309 13.12C54.4309 13.6 54.6809 13.96 55.1809 14.2C55.7009 14.44 56.5009 14.68 57.5809 14.92C58.8209 15.24 59.8309 15.56 60.6109 15.88C61.3909 16.18 62.0709 16.68 62.6509 17.38C63.2509 18.06 63.5609 18.98 63.5809 20.14C63.5809 21.12 63.3009 22 62.7409 22.78C62.2009 23.54 61.4109 24.14 60.3709 24.58C59.3509 25.02 58.1609 25.24 56.8009 25.24ZM69.2994 6.52C68.3994 6.52 67.6594 6.26 67.0794 5.74C66.5194 5.2 66.2394 4.54 66.2394 3.76C66.2394 2.96 66.5194 2.3 67.0794 1.78C67.6594 1.24 68.3994 0.969998 69.2994 0.969998C70.1794 0.969998 70.8994 1.24 71.4594 1.78C72.0394 2.3 72.3294 2.96 72.3294 3.76C72.3294 4.54 72.0394 5.2 71.4594 5.74C70.8994 6.26 70.1794 6.52 69.2994 6.52ZM71.8494 8.26V25H66.7194V8.26H71.8494ZM81.927 8.02C83.107 8.02 84.137 8.26 85.017 8.74C85.917 9.22 86.607 9.85 87.087 10.63V8.26H92.217V24.97C92.217 26.51 91.907 27.9 91.287 29.14C90.687 30.4 89.757 31.4 88.497 32.14C87.257 32.88 85.707 33.25 83.847 33.25C81.367 33.25 79.357 32.66 77.817 31.48C76.277 30.32 75.397 28.74 75.177 26.74H80.247C80.407 27.38 80.787 27.88 81.387 28.24C81.987 28.62 82.727 28.81 83.607 28.81C84.667 28.81 85.507 28.5 86.127 27.88C86.767 27.28 87.087 26.31 87.087 24.97V22.6C86.587 23.38 85.897 24.02 85.017 24.52C84.137 25 83.107 25.24 81.927 25.24C80.547 25.24 79.297 24.89 78.177 24.19C77.057 23.47 76.167 22.46 75.507 21.16C74.867 19.84 74.547 18.32 74.547 16.6C74.547 14.88 74.867 13.37 75.507 12.07C76.167 10.77 77.057 9.77 78.177 9.07C79.297 8.37 80.547 8.02 81.927 8.02ZM87.087 16.63C87.087 15.35 86.727 14.34 86.007 13.6C85.307 12.86 84.447 12.49 83.427 12.49C82.407 12.49 81.537 12.86 80.817 13.6C80.117 14.32 79.767 15.32 79.767 16.6C79.767 17.88 80.117 18.9 80.817 19.66C81.537 20.4 82.407 20.77 83.427 20.77C84.447 20.77 85.307 20.4 86.007 19.66C86.727 18.92 87.087 17.91 87.087 16.63ZM106.128 8.08C108.088 8.08 109.648 8.72 110.808 10C111.988 11.26 112.578 13 112.578 15.22V25H107.478V15.91C107.478 14.79 107.188 13.92 106.608 13.3C106.028 12.68 105.248 12.37 104.268 12.37C103.288 12.37 102.508 12.68 101.928 13.3C101.348 13.92 101.058 14.79 101.058 15.91V25H95.9284V8.26H101.058V10.48C101.578 9.74 102.278 9.16 103.158 8.74C104.038 8.3 105.028 8.08 106.128 8.08Z" fill="white"/>
</svg>
