<svg xmlns="http://www.w3.org/2000/svg" width="168" height="153" fill="none"><path fill="#FF0080" d="M168 0H0v153h168V0Z"/><path stroke="#707070" d="M167.5.5H.5v152h167V.5Z"/><path fill="#333" d="M88.5 45h-9c-14.912 0-27 12.088-27 27v9c0 14.912 12.088 27 27 27h9c14.912 0 27-12.088 27-27v-9c0-14.912-12.088-27-27-27Z"/><path fill="#FF0080" d="M94.405 73.033a4.012 4.012 0 0 0-1.996-3.462l-6.234-3.61a4.01 4.01 0 0 0-4.009 0l-6.234 3.61a4.012 4.012 0 0 0-1.996 3.462v7.276c0 1.423.765 2.75 1.996 3.462l6.234 3.61a4.01 4.01 0 0 0 4.009 0l6.234-3.61a4.012 4.012 0 0 0 1.996-3.462v-7.276Zm8 0v7.276a12 12 0 0 1-5.987 10.386l-6.235 3.609a12 12 0 0 1-12.025 0l-6.235-3.61a12 12 0 0 1-5.987-10.385v-7.276a12 12 0 0 1 5.987-10.385l6.235-3.61a12 12 0 0 1 12.025 0l6.234 3.61a12 12 0 0 1 5.988 10.385Z"/></svg>