<svg xmlns="http://www.w3.org/2000/svg" width="113" height="34" fill="none"><path fill="#fff" d="M5.99 3.94V25H.86V3.94h5.13Zm11.608 0c2.22 0 4.16.44 5.82 1.32 1.66.88 2.94 2.12 3.84 3.72.92 1.58 1.38 3.41 1.38 5.49 0 2.06-.46 3.89-1.38 5.49-.9 1.6-2.19 2.84-3.87 3.72-1.66.88-3.59 1.32-5.79 1.32h-7.89V3.94h7.89Zm-.33 16.62c1.94 0 3.45-.53 4.53-1.59s1.62-2.56 1.62-4.5-.54-3.45-1.62-4.53-2.59-1.62-4.53-1.62h-2.43v12.24h2.43Zm30.017-4.2c0 .48-.03.98-.09 1.5h-11.61c.08 1.04.41 1.84.99 2.4.6.54 1.33.81 2.19.81 1.28 0 2.17-.54 2.67-1.62h5.46c-.28 1.1-.79 2.09-1.53 2.97-.72.88-1.63 1.57-2.73 2.07-1.1.5-2.33.75-3.69.75-1.64 0-3.1-.35-4.38-1.05-1.28-.7-2.28-1.7-3-3-.72-1.3-1.08-2.82-1.08-4.56 0-1.74.35-3.26 1.05-4.56.72-1.3 1.72-2.3 3-3 1.28-.7 2.75-1.05 4.41-1.05 1.62 0 3.06.34 4.32 1.02 1.26.68 2.24 1.65 2.94 2.91.72 1.26 1.08 2.73 1.08 4.41Zm-5.25-1.35c0-.88-.3-1.58-.9-2.1-.6-.52-1.35-.78-2.25-.78-.86 0-1.59.25-2.19.75-.58.5-.94 1.21-1.08 2.13h6.42ZM56.8 25.24c-1.46 0-2.76-.25-3.9-.75-1.14-.5-2.04-1.18-2.7-2.04a5.483 5.483 0 0 1-1.11-2.94h5.07c.06.58.33 1.05.81 1.41.48.36 1.07.54 1.77.54.64 0 1.13-.12 1.47-.36.36-.26.54-.59.54-.99 0-.48-.25-.83-.75-1.05-.5-.24-1.31-.5-2.43-.78-1.2-.28-2.2-.57-3-.87-.8-.32-1.49-.81-2.07-1.47-.58-.68-.87-1.59-.87-2.73 0-.96.26-1.83.78-2.61.54-.8 1.32-1.43 2.34-1.89 1.04-.46 2.27-.69 3.69-.69 2.1 0 3.75.52 4.95 1.56 1.22 1.04 1.92 2.42 2.1 4.14h-4.74c-.08-.58-.34-1.04-.78-1.38-.42-.34-.98-.51-1.68-.51-.6 0-1.06.12-1.38.36-.32.22-.48.53-.48.93 0 .48.25.84.75 1.08.52.24 1.32.48 2.4.72 1.24.32 2.25.64 3.03.96.78.3 1.46.8 2.04 1.5.6.68.91 1.6.93 2.76 0 .98-.28 1.86-.84 2.64-.54.76-1.33 1.36-2.37 1.8-1.02.44-2.21.66-3.57.66ZM69.299 6.52c-.9 0-1.64-.26-2.22-.78-.56-.54-.84-1.2-.84-1.98 0-.8.28-1.46.84-1.98.58-.54 1.32-.81 2.22-.81.88 0 1.6.27 2.16.81.58.52.87 1.18.87 1.98 0 .78-.29 1.44-.87 1.98-.56.52-1.28.78-2.16.78Zm2.55 1.74V25h-5.13V8.26h5.13Zm10.078-.24c1.18 0 2.21.24 3.09.72.9.48 1.59 1.11 2.07 1.89V8.26h5.13v16.71c0 1.54-.31 2.93-.93 4.17-.6 1.26-1.53 2.26-2.79 3-1.24.74-2.79 1.11-4.65 1.11-2.48 0-4.49-.59-6.03-1.77-1.54-1.16-2.42-2.74-2.64-4.74h5.07c.16.64.54 1.14 1.14 1.5.6.38 1.34.57 2.22.57 1.06 0 1.9-.31 2.52-.93.64-.6.96-1.57.96-2.91V22.6c-.5.78-1.19 1.42-2.07 1.92-.88.48-1.91.72-3.09.72-1.38 0-2.63-.35-3.75-1.05-1.12-.72-2.01-1.73-2.67-3.03-.64-1.32-.96-2.84-.96-4.56 0-1.72.32-3.23.96-4.53.66-1.3 1.55-2.3 2.67-3 1.12-.7 2.37-1.05 3.75-1.05Zm5.16 8.61c0-1.28-.36-2.29-1.08-3.03-.7-.74-1.56-1.11-2.58-1.11s-1.89.37-2.61 1.11c-.7.72-1.05 1.72-1.05 3s.35 2.3 1.05 3.06c.72.74 1.59 1.11 2.61 1.11 1.02 0 1.88-.37 2.58-1.11.72-.74 1.08-1.75 1.08-3.03Zm19.041-8.55c1.96 0 3.52.64 4.68 1.92 1.18 1.26 1.77 3 1.77 5.22V25h-5.1v-9.09c0-1.12-.29-1.99-.87-2.61-.58-.62-1.36-.93-2.34-.93-.98 0-1.76.31-2.34.93-.58.62-.87 1.49-.87 2.61V25h-5.13V8.26h5.13v2.22c.52-.74 1.22-1.32 2.1-1.74.88-.44 1.87-.66 2.97-.66Z"/></svg>