<svg xmlns="http://www.w3.org/2000/svg" width="47" height="47" fill="none"><path fill="#fff" d="M23.744 0a23.244 23.244 0 1 0 23.245 23.244A23.295 23.295 0 0 0 23.744 0Zm15.767 10.125a20.425 20.425 0 0 1 4.75 12.793 29.12 29.12 0 0 0-11.791-.158 35.45 35.45 0 0 0-3.205.741 62.913 62.913 0 0 0-2.418-5.714c4.901-1.873 10.213-4.66 12.664-7.662Zm-15.766-7.4A20.442 20.442 0 0 1 37.609 8.13c-1.425 1.944-5.487 4.77-12.009 7.215a59.202 59.202 0 0 0-8.152-11.631 20.43 20.43 0 0 1 6.296-.99l.001.001ZM14.751 4.8a56.69 56.69 0 0 1 8.259 11.448A48.795 48.795 0 0 1 3.719 18.76 20.6 20.6 0 0 1 14.751 4.8ZM3.224 23.244c0-.6.028-1.2.079-1.789 1.292.135 2.59.202 3.888.2A55.543 55.543 0 0 0 24.28 18.7a59.928 59.928 0 0 1 2.4 5.627 38.076 38.076 0 0 0-6.577 3.1c-5.1 3.039-8.839 6.949-10.388 10.779a20.468 20.468 0 0 1-6.491-14.962Zm20.52 20.52a20.4 20.4 0 0 1-11.791-3.735c1.035-3.5 4.536-7.281 9.544-10.262a35.136 35.136 0 0 1 6.073-2.847 63.82 63.82 0 0 1 2.876 15.72 20.428 20.428 0 0 1-6.702 1.125v-.001ZM33.1 41.5a65.926 65.926 0 0 0-2.946-15.4 27.275 27.275 0 0 1 13.962-.414A20.57 20.57 0 0 1 33.1 41.5Z"/></svg>