<svg xmlns="http://www.w3.org/2000/svg" width="48" height="33" fill="none"><path fill="#fff" d="M23.265 18.032a8.24 8.24 0 0 0-4.4-2.861 7.834 7.834 0 0 0 3.312-2.884 7.151 7.151 0 0 0 1.1-3.806 7.787 7.787 0 0 0-1.235-4.163 7.449 7.449 0 0 0-3.419-2.948 14.644 14.644 0 0 0-5.8-.961H.991v31.537h12.024c1.711.033 3.42-.144 5.088-.525a9.671 9.671 0 0 0 3.453-1.561 7.951 7.951 0 0 0 2.312-2.935 9.231 9.231 0 0 0 .936-4.12 7.658 7.658 0 0 0-1.539-4.773Zm-18.1-4.37V4.135h6.3a18.084 18.084 0 0 1 4.8.438 3.806 3.806 0 0 1 2.151 1.635c.511.83.773 1.79.754 2.766a4.516 4.516 0 0 1-.807 2.753 4.432 4.432 0 0 1-2.4 1.571c-1.304.297-2.642.42-3.978.367H5.164l.001-.003Zm14.695 11.8a4.619 4.619 0 0 1-1.592 1.756 6.831 6.831 0 0 1-2.409.859c-.941.126-1.89.178-2.84.154H5.164V17.39h7.292c1.556-.058 3.111.12 4.614.528 1.017.312 1.9.956 2.507 1.828.612.903.927 1.975.9 3.066a5.491 5.491 0 0 1-.618 2.651l.001-.001ZM47.48 20.104c0-3.773-.967-6.7-2.9-8.78A9.75 9.75 0 0 0 37.093 8.2a10.049 10.049 0 0 0-7.7 3.183c-1.979 2.125-2.968 5.108-2.968 8.95 0 3.715.978 6.602 2.935 8.662a11.893 11.893 0 0 0 14.492 1.148 9.762 9.762 0 0 0 3.5-5.444l-4-.49a7.39 7.39 0 0 1-2.391 3.57 5.908 5.908 0 0 1-3.632 1.119 6.348 6.348 0 0 1-4.778-2 8.813 8.813 0 0 1-2.127-5.765h17.037c.014-.457.019-.8.019-1.03Zm-16.843-2.158a7.07 7.07 0 0 1 2.007-4.775 6.17 6.17 0 0 1 4.486-1.786 5.937 5.937 0 0 1 4.8 2.24 7.782 7.782 0 0 1 1.464 4.324l-12.757-.003ZM43.568 4.011H30.629l-.033 3.183h13l-.028-3.183Z"/></svg>